<svg width="267" height="56" viewBox="0 0 267 56" fill="none" xmlns="http://www.w3.org/2000/svg">
<path d="M46.8809 37.8379V18.2293H50.6993L57.4592 28.756L64.2965 18.2293H68.0117V37.8379H64.4512V23.6473L57.4334 34.5097L50.4414 23.6733V37.8379H46.8809Z" fill="#002C77"/>
<path d="M76.2281 38.3022C74.6801 38.3022 73.4371 37.8766 72.4999 37.0252C71.5621 36.1738 71.0938 35.043 71.0938 33.6323C71.0938 32.6178 71.3429 31.736 71.8419 30.9877C72.3406 30.2394 73.0458 29.6551 73.9577 29.2333C74.8691 28.812 75.9355 28.6012 77.157 28.6012C78.5845 28.6012 79.8919 28.8507 81.0787 29.3494V29.2978C81.0787 28.0424 80.7472 27.0878 80.0853 26.4339C79.4231 25.7804 78.4039 25.4534 77.028 25.4534C76.2192 25.4534 75.3896 25.5825 74.5382 25.8404C73.6868 26.0985 72.891 26.477 72.1516 26.9757V23.9054C72.8566 23.51 73.6565 23.1746 74.551 22.8992C75.4453 22.6242 76.3914 22.4864 77.3892 22.4864C79.5907 22.4864 81.2851 23.054 82.4719 24.1893C83.6588 25.3244 84.2521 26.9499 84.2521 29.0655V37.8379H81.2335L81.1818 35.6707C80.7691 36.4793 80.1152 37.1199 79.2211 37.5929C78.3265 38.0657 77.3287 38.3022 76.2281 38.3022ZM74.3446 33.4261C74.3446 34.1656 74.5854 34.7377 75.067 35.1417C75.5484 35.546 76.2192 35.7479 77.0795 35.7479C78.3006 35.7479 79.2468 35.3998 79.9177 34.7031C80.5885 34.0063 80.9666 32.9961 81.053 31.6714C80.0725 31.2242 78.9541 31.0005 77.6988 31.0005C76.5977 31.0005 75.7636 31.2114 75.1961 31.6326C74.6285 32.0544 74.3446 32.6518 74.3446 33.4261Z" fill="#002C77"/>
<path d="M87.9434 37.8377V22.9506H91.2717L91.2975 26.0468C91.6929 25.0321 92.2949 24.2238 93.1036 23.6214C93.9118 23.0196 94.8234 22.7184 95.8385 22.7184C96.1135 22.7184 96.4403 22.7442 96.819 22.7958C97.1971 22.8475 97.4983 22.9164 97.722 23.0023V26.3305C97.4465 26.2447 97.0854 26.1672 96.6382 26.0984C96.1908 26.0298 95.7781 25.9951 95.3998 25.9951C94.1099 25.9951 93.1249 26.4124 92.4456 27.2465C91.7659 28.081 91.4266 29.2892 91.4266 30.8714V37.8377H87.9434Z" fill="#002C77"/>
<path d="M104.729 38.3022C104.195 38.3022 103.615 38.2378 102.987 38.1088C102.359 37.9797 101.757 37.8035 101.181 37.5798C100.605 37.3567 100.102 37.107 99.6719 36.8318V33.7873C101.203 34.8708 102.836 35.4126 104.574 35.4126C105.589 35.4126 106.328 35.288 106.793 35.0386C107.257 34.7893 107.49 34.3978 107.49 33.8645C107.49 33.4001 107.279 33.0221 106.857 32.7293C106.436 32.4372 105.623 32.1016 104.419 31.7229C102.733 31.1902 101.542 30.5709 100.846 29.8654C100.149 29.1603 99.8008 28.2056 99.8008 27.0015C99.8008 25.6083 100.308 24.5076 101.323 23.699C102.338 22.8907 103.722 22.4864 105.477 22.4864C106.148 22.4864 106.913 22.6025 107.773 22.8346C108.633 23.0669 109.381 23.3636 110.018 23.7248V26.7693C109.467 26.3564 108.767 26.0171 107.915 25.7501C107.064 25.4837 106.277 25.3502 105.554 25.3502C103.937 25.3502 103.129 25.8404 103.129 26.8209C103.129 27.1136 103.202 27.3587 103.348 27.5562C103.494 27.7542 103.765 27.9477 104.161 28.1368C104.557 28.3262 105.124 28.5411 105.864 28.7818C107.137 29.1946 108.139 29.6292 108.87 30.0847C109.601 30.5406 110.126 31.0611 110.444 31.6457C110.762 32.2306 110.921 32.9446 110.921 33.7873C110.921 35.1636 110.357 36.26 109.231 37.0767C108.104 37.8935 106.603 38.3022 104.729 38.3022Z" fill="#002C77"/>
<path d="M113.939 37.8378V18.2292H117.423V25.0922C117.852 24.2666 118.472 23.626 119.28 23.17C120.089 22.7144 121.017 22.4864 122.067 22.4864C123.787 22.4864 125.111 23.0325 126.04 24.1247C126.969 25.2172 127.433 26.7866 127.433 28.8333V37.8378H123.95V29.4784C123.95 26.8813 122.952 25.5824 120.957 25.5824C119.856 25.5824 118.992 25.948 118.364 26.679C117.736 27.4103 117.423 28.4379 117.423 29.7622V37.8378H113.939Z" fill="#002C77"/>
<path d="M131.588 37.8378V18.2292H135.406L142.166 28.756L149.004 18.2292H152.719V37.8378H149.158V23.6473L142.141 34.5096L135.148 23.6732V37.8378H131.588Z" fill="#002C77"/>
<path d="M163.696 38.3022C162.096 38.3022 160.703 37.9838 159.516 37.3476C158.329 36.7115 157.413 35.8041 156.768 34.6256C156.124 33.4476 155.801 32.0672 155.801 30.4847C155.801 28.8849 156.132 27.4876 156.794 26.292C157.456 25.0966 158.377 24.1633 159.555 23.4927C160.733 22.8218 162.096 22.4864 163.645 22.4864C164.418 22.4864 165.132 22.5811 165.786 22.7701C166.439 22.9596 167.059 23.183 167.644 23.4409V26.6661C167.076 26.3222 166.461 26.0597 165.799 25.8792C165.136 25.6986 164.504 25.6083 163.902 25.6083C162.509 25.6083 161.395 26.034 160.561 26.8854C159.727 27.7368 159.31 28.8938 159.31 30.3556C159.31 31.8866 159.727 33.0777 160.561 33.9291C161.395 34.7805 162.552 35.2061 164.031 35.2061C164.633 35.2061 165.209 35.1333 165.76 34.9868C166.31 34.8408 166.938 34.6128 167.644 34.3031V37.3736C167.093 37.6488 166.487 37.8722 165.824 38.0444C165.162 38.216 164.453 38.3022 163.696 38.3022Z" fill="#002C77"/>
<path d="M171.357 37.8378V18.2292H174.97V34.6127H184V37.8378H171.357Z" fill="#002C77"/>
<path d="M193.985 38.3022C192.368 38.3022 190.931 38.0013 189.676 37.3992C188.42 36.7974 187.431 35.9116 186.709 34.7418C185.986 33.5723 185.625 32.136 185.625 30.4331C185.625 28.868 185.948 27.4917 186.593 26.3049C187.238 25.118 188.128 24.1852 189.263 23.5055C190.398 22.8262 191.697 22.4864 193.159 22.4864C194.552 22.4864 195.769 22.792 196.81 23.4022C197.85 24.013 198.654 24.8688 199.222 25.9695C199.79 27.0705 200.074 28.3605 200.074 29.8395C200.074 30.046 200.065 30.2484 200.048 30.4459C200.031 30.644 200.005 30.9405 199.971 31.3361H189.031C189.237 32.5746 189.787 33.542 190.682 34.2388C191.576 34.9352 192.78 35.2836 194.294 35.2836C196.221 35.2836 197.992 34.6818 199.609 33.4776V36.5478C198.835 37.0811 197.954 37.507 196.965 37.8251C195.975 38.1431 194.982 38.3022 193.985 38.3022ZM193.004 25.1696C191.903 25.1696 191.009 25.5095 190.321 26.1888C189.633 26.8685 189.203 27.8187 189.031 29.0397H196.771C196.771 28.8165 196.754 28.6185 196.719 28.4464C196.547 27.38 196.143 26.5673 195.507 26.0082C194.87 25.4494 194.036 25.1696 193.004 25.1696Z" fill="#002C77"/>
<path d="M203.195 37.8379V22.9507H206.549L206.575 25.3244C206.988 24.4303 207.611 23.7337 208.446 23.2346C209.28 22.7359 210.239 22.4864 211.322 22.4864C213.042 22.4864 214.367 23.0326 215.296 24.1247C216.225 25.2172 216.689 26.7867 216.689 28.8334V37.8379H213.206V29.4784C213.206 26.8813 212.208 25.5825 210.213 25.5825C209.112 25.5825 208.248 25.948 207.62 26.679C206.992 27.4103 206.678 28.4379 206.678 29.7623V37.8379H203.195Z" fill="#002C77"/>
<path d="M220.379 37.8379V22.9507H223.733L223.759 25.3244C224.171 24.4303 224.795 23.7337 225.629 23.2346C226.463 22.7359 227.422 22.4864 228.506 22.4864C230.226 22.4864 231.551 23.0326 232.479 24.1247C233.408 25.2172 233.873 26.7867 233.873 28.8334V37.8379H230.39V29.4784C230.39 26.8813 229.392 25.5825 227.397 25.5825C226.296 25.5825 225.431 25.948 224.804 26.679C224.176 27.4103 223.862 28.4379 223.862 29.7623V37.8379H220.379Z" fill="#002C77"/>
<path d="M241.793 38.3022C240.245 38.3022 239.002 37.8766 238.065 37.0252C237.127 36.1738 236.658 35.043 236.658 33.6323C236.658 32.6178 236.908 31.736 237.407 30.9877C237.905 30.2394 238.61 29.6551 239.522 29.2333C240.434 28.812 241.5 28.6012 242.722 28.6012C244.149 28.6012 245.456 28.8507 246.643 29.3494V29.2978C246.643 28.0424 246.312 27.0878 245.65 26.4339C244.988 25.7804 243.969 25.4534 242.593 25.4534C241.784 25.4534 240.954 25.5825 240.103 25.8404C239.251 26.0985 238.455 26.477 237.716 26.9757V23.9054C238.421 23.51 239.221 23.1746 240.116 22.8992C241.01 22.6242 241.956 22.4864 242.954 22.4864C245.155 22.4864 246.85 23.054 248.036 24.1893C249.223 25.3244 249.817 26.9499 249.817 29.0655V37.8379H246.798L246.747 35.6707C246.334 36.4793 245.68 37.1199 244.786 37.5929C243.891 38.0657 242.893 38.3022 241.793 38.3022ZM239.909 33.4261C239.909 34.1656 240.15 34.7377 240.632 35.1417C241.113 35.546 241.784 35.7479 242.644 35.7479C243.865 35.7479 244.811 35.3998 245.482 34.7031C246.153 34.0063 246.531 32.9961 246.618 31.6714C245.637 31.2242 244.519 31.0005 243.263 31.0005C242.162 31.0005 241.328 31.2114 240.761 31.6326C240.193 32.0544 239.909 32.6518 239.909 33.4261Z" fill="#002C77"/>
<path d="M253.506 37.8379V22.9507H256.86L256.886 25.3244C257.298 24.4303 257.922 23.7337 258.756 23.2346C259.59 22.7359 260.549 22.4864 261.633 22.4864C263.353 22.4864 264.678 23.0326 265.606 24.1247C266.535 25.2172 267 26.7867 267 28.8334V37.8379H263.516V29.4784C263.516 26.8813 262.519 25.5825 260.524 25.5825C259.423 25.5825 258.558 25.948 257.93 26.679C257.302 27.4103 256.989 28.4379 256.989 29.7623V37.8379H253.506Z" fill="#002C77"/>
<path d="M36.0717 21.7483L28.2313 17.2317C27.6791 16.9136 26.7755 16.9136 26.2233 17.2317L4.59356 29.692L16.563 20.5217L10.8519 17.2317C10.2997 16.9136 9.39614 16.9136 8.84397 17.2317L1.00356 21.7483C0.451388 22.0664 -0.000392574 22.848 2.55985e-07 23.4846V32.514C-0.000392544 33.1519 0.451388 33.9336 1.00356 34.2517L8.84397 38.7683C9.39614 39.0864 10.2997 39.0864 10.8519 38.7683L32.4817 26.308L20.5123 35.4783L26.2233 38.7683C26.7755 39.0864 27.6791 39.0864 28.2313 38.7683L36.0717 34.2517C36.6238 33.9336 37.0756 33.1519 37.0756 32.5147V23.4853C37.0756 22.848 36.6238 22.0664 36.0717 21.7483Z" fill="#002C77"/>
</svg>
