<svg width="284" height="25" viewBox="0 0 284 25" fill="none" xmlns="http://www.w3.org/2000/svg">
<g clip-path="url(#clip0_652_4151)">
<path d="M49.8652 23.2255V1.84766H53.9268L61.1171 13.3242L68.3898 1.84766H72.3415V23.2255H68.5543V7.75457L61.0897 19.597L53.6525 7.78283V23.2255H49.8652Z" fill="white"/>
<path d="M81.0823 23.7316C79.4357 23.7316 78.1137 23.2676 77.1168 22.3394C76.1193 21.4111 75.6211 20.1783 75.6211 18.6403C75.6211 17.5342 75.8862 16.573 76.4169 15.7571C76.9473 14.9413 77.6974 14.3043 78.6674 13.8444C79.6368 13.3851 80.7711 13.1553 82.0704 13.1553C83.5887 13.1553 84.9794 13.4273 86.2418 13.971V13.9148C86.2418 12.5461 85.8892 11.5054 85.1851 10.7924C84.4807 10.08 83.3966 9.72351 81.9331 9.72351C81.0729 9.72351 80.1905 9.86419 79.2848 10.1454C78.3792 10.4268 77.5328 10.8394 76.7462 11.3831V8.0358C77.4962 7.6047 78.347 7.23902 79.2985 6.93876C80.2497 6.63898 81.256 6.48877 82.3173 6.48877C84.659 6.48877 86.4613 7.10755 87.7237 8.34527C88.9861 9.58283 89.6173 11.355 89.6173 13.6615V23.2254H86.4065L86.3515 20.8627C85.9124 21.7442 85.2169 22.4426 84.2659 22.9583C83.3144 23.4737 82.253 23.7316 81.0823 23.7316ZM79.079 18.4155C79.079 19.2218 79.335 19.8455 79.8473 20.286C80.3593 20.7267 81.0729 20.9468 81.988 20.9468C83.2868 20.9468 84.2933 20.5673 85.0068 19.8077C85.7204 19.0481 86.1225 17.9468 86.2144 16.5025C85.1715 16.015 83.9819 15.7711 82.6467 15.7711C81.4755 15.7711 80.5883 16.001 79.9846 16.4602C79.3809 16.9201 79.079 17.5714 79.079 18.4155Z" fill="white"/>
<path d="M93.541 23.2257V6.99529H97.0813L97.1087 10.3709C97.5293 9.26463 98.1696 8.38338 99.0299 7.72665C99.8895 7.07055 100.859 6.74219 101.939 6.74219C102.231 6.74219 102.579 6.77029 102.982 6.8265C103.384 6.88287 103.704 6.95797 103.942 7.05166V10.6802C103.649 10.5867 103.265 10.5022 102.79 10.4271C102.314 10.3523 101.875 10.3145 101.472 10.3145C100.1 10.3145 99.0525 10.7694 98.3299 11.6788C97.6069 12.5886 97.246 13.9059 97.246 15.6307V23.2257H93.541Z" fill="white"/>
<path d="M111.396 23.7316C110.829 23.7316 110.212 23.6614 109.544 23.5207C108.876 23.38 108.236 23.1879 107.623 22.944C107.01 22.7007 106.475 22.4286 106.018 22.1285V18.8093C107.646 19.9906 109.384 20.5813 111.232 20.5813C112.311 20.5813 113.098 20.4454 113.592 20.1735C114.086 19.9017 114.333 19.4749 114.333 18.8934C114.333 18.3872 114.109 17.975 113.66 17.6559C113.212 17.3373 112.348 16.9715 111.067 16.5587C109.274 15.9778 108.007 15.3027 107.266 14.5335C106.525 13.7649 106.155 12.724 106.155 11.4112C106.155 9.8923 106.694 8.69237 107.774 7.8108C108.853 6.92955 110.326 6.48877 112.192 6.48877C112.906 6.48877 113.72 6.61532 114.635 6.86842C115.549 7.12168 116.345 7.44512 117.022 7.83891V11.1581C116.437 10.708 115.691 10.338 114.786 10.047C113.88 9.75654 113.043 9.61093 112.275 9.61093C110.555 9.61093 109.695 10.1454 109.695 11.2143C109.695 11.5335 109.773 11.8007 109.928 12.016C110.083 12.2318 110.372 12.4428 110.793 12.6489C111.213 12.8555 111.817 13.0897 112.604 13.3522C113.958 13.8022 115.023 14.276 115.801 14.7727C116.579 15.2697 117.137 15.8372 117.475 16.4745C117.814 17.1122 117.983 17.8906 117.983 18.8093C117.983 20.3098 117.383 21.5051 116.185 22.3956C114.987 23.286 113.39 23.7316 111.396 23.7316Z" fill="white"/>
<path d="M121.193 23.2255V1.84766H124.898V9.32986C125.355 8.42972 126.014 7.73139 126.874 7.23424C127.734 6.73756 128.722 6.4889 129.838 6.4889C131.667 6.4889 133.076 7.08434 134.065 8.27506C135.052 9.4661 135.546 11.1772 135.546 13.4085V23.2255H131.841V14.1118C131.841 11.2804 130.78 9.86433 128.658 9.86433C127.487 9.86433 126.568 10.2629 125.9 11.0598C125.232 11.8571 124.898 12.9774 124.898 14.4213V23.2255H121.193Z" fill="white"/>
<path d="M139.965 23.2255V1.84766H144.026L151.217 13.3242L158.489 1.84766H162.441V23.2255H158.654V7.75457L151.189 19.597L143.752 7.78283V23.2255H139.965Z" fill="white"/>
<path d="M174.117 23.7316C172.415 23.7316 170.933 23.3845 169.671 22.6909C168.408 21.9973 167.434 21.0081 166.748 19.7232C166.062 18.439 165.719 16.934 165.719 15.2087C165.719 13.4646 166.071 11.9412 166.776 10.6378C167.48 9.33449 168.459 8.31701 169.712 7.58581C170.965 6.85445 172.415 6.48877 174.062 6.48877C174.885 6.48877 175.644 6.59198 176.339 6.79808C177.035 7.00466 177.693 7.24823 178.316 7.52944V11.0455C177.712 10.6707 177.057 10.3845 176.353 10.1876C175.649 9.99074 174.977 9.8923 174.336 9.8923C172.854 9.8923 171.669 10.3564 170.782 11.2847C169.895 12.2129 169.451 13.4743 169.451 15.068C169.451 16.7371 169.895 18.0357 170.782 18.9639C171.669 19.8922 172.9 20.3561 174.473 20.3561C175.114 20.3561 175.726 20.2768 176.312 20.117C176.897 19.9579 177.565 19.7093 178.316 19.3717V22.7192C177.73 23.0193 177.085 23.2628 176.381 23.4505C175.676 23.6376 174.921 23.7316 174.117 23.7316Z" fill="white"/>
<path d="M182.268 23.2255V1.84766H186.11V19.7094H195.715V23.2255H182.268Z" fill="white"/>
<path d="M206.335 23.7316C204.615 23.7316 203.088 23.4035 201.752 22.7471C200.417 22.091 199.365 21.1253 198.596 19.8499C197.828 18.5749 197.443 17.009 197.443 15.1525C197.443 13.4462 197.787 11.9457 198.473 10.6518C199.159 9.35783 200.105 8.34082 201.313 7.59978C202.521 6.85921 203.902 6.48877 205.457 6.48877C206.939 6.48877 208.233 6.8219 209.34 7.4872C210.447 8.15314 211.302 9.08615 211.906 10.2861C212.51 11.4865 212.812 12.8928 212.812 14.5053C212.812 14.7304 212.803 14.9511 212.784 15.1665C212.766 15.3824 212.739 15.7057 212.702 16.1369H201.066C201.286 17.4872 201.871 18.5419 202.822 19.3015C203.774 20.0608 205.054 20.4406 206.665 20.4406C208.713 20.4406 210.598 19.7845 212.318 18.4717V21.8189C211.495 22.4003 210.557 22.8646 209.505 23.2114C208.453 23.5582 207.396 23.7316 206.335 23.7316ZM205.292 9.41404C204.121 9.41404 203.17 9.78464 202.438 10.5252C201.706 11.2663 201.249 12.3022 201.066 13.6334H209.299C209.299 13.39 209.281 13.1742 209.244 12.9865C209.061 11.8239 208.631 10.9379 207.954 10.3283C207.277 9.71907 206.39 9.41404 205.292 9.41404Z" fill="white"/>
<path d="M216.133 23.2254V6.99497H219.7L219.728 9.58283C220.167 8.60806 220.83 7.84859 221.718 7.30444C222.605 6.76077 223.625 6.48877 224.777 6.48877C226.607 6.48877 228.016 7.08421 229.004 8.27493C229.992 9.46597 230.486 11.177 230.486 13.4084V23.2254H226.781V14.1117C226.781 11.2802 225.72 9.8642 223.597 9.8642C222.426 9.8642 221.507 10.2627 220.839 11.0597C220.171 11.8569 219.837 12.9773 219.837 14.4211V23.2254H216.133Z" fill="white"/>
<path d="M234.41 23.2254V6.99497H237.978L238.005 9.58283C238.444 8.60806 239.107 7.84859 239.995 7.30444C240.882 6.76077 241.902 6.48877 243.055 6.48877C244.884 6.48877 246.293 7.08421 247.281 8.27493C248.269 9.46597 248.763 11.177 248.763 13.4084V23.2254H245.058V14.1117C245.058 11.2802 243.997 9.8642 241.875 9.8642C240.704 9.8642 239.784 10.2627 239.116 11.0597C238.448 11.8569 238.115 12.9773 238.115 14.4211V23.2254H234.41Z" fill="white"/>
<path d="M257.188 23.7316C255.542 23.7316 254.219 23.2676 253.222 22.3394C252.225 21.4111 251.727 20.1783 251.727 18.6403C251.727 17.5342 251.992 16.573 252.523 15.7571C253.053 14.9413 253.803 14.3043 254.773 13.8444C255.743 13.3851 256.877 13.1553 258.176 13.1553C259.695 13.1553 261.085 13.4273 262.347 13.971V13.9148C262.347 12.5461 261.995 11.5054 261.291 10.7924C260.586 10.08 259.502 9.72351 258.039 9.72351C257.179 9.72351 256.296 9.86419 255.39 10.1454C254.485 10.4268 253.638 10.8394 252.852 11.3831V8.0358C253.602 7.6047 254.453 7.23902 255.404 6.93876C256.355 6.63898 257.362 6.48877 258.423 6.48877C260.765 6.48877 262.567 7.10755 263.829 8.34527C265.092 9.58283 265.723 11.355 265.723 13.6615V23.2254H262.512L262.457 20.8627C262.018 21.7442 261.323 22.4426 260.372 22.9583C259.42 23.4737 258.359 23.7316 257.188 23.7316ZM255.185 18.4155C255.185 19.2218 255.441 19.8455 255.953 20.286C256.465 20.7267 257.179 20.9468 258.094 20.9468C259.392 20.9468 260.399 20.5673 261.112 19.8077C261.826 19.0481 262.228 17.9468 262.32 16.5025C261.277 16.015 260.088 15.7711 258.752 15.7711C257.581 15.7711 256.694 16.001 256.09 16.4602C255.486 16.9201 255.185 17.5714 255.185 18.4155Z" fill="white"/>
<path d="M269.646 23.2254V6.99497H273.214L273.241 9.58283C273.681 8.60806 274.344 7.84859 275.231 7.30444C276.118 6.76077 277.139 6.48877 278.291 6.48877C280.12 6.48877 281.529 7.08421 282.518 8.27493C283.505 9.46597 283.999 11.177 283.999 13.4084V23.2254H280.295V14.1117C280.295 11.2802 279.233 9.8642 277.111 9.8642C275.94 9.8642 275.021 10.2627 274.353 11.0597C273.685 11.8569 273.351 12.9773 273.351 14.4211V23.2254H269.646Z" fill="white"/>
<path d="M38.3683 5.68425L30.0287 0.760094C29.4414 0.413302 28.4803 0.413302 27.893 0.760094L4.88603 14.3446L17.6175 4.34693L11.5428 0.760094C10.9555 0.413302 9.9944 0.413302 9.40706 0.760094L1.06746 5.68425C0.480128 6.03104 -0.000417569 6.88321 2.72283e-07 7.57721V17.4213C-0.000417537 18.1168 0.480128 18.969 1.06746 19.3158L9.40706 24.2399C9.9944 24.5867 10.9555 24.5867 11.5428 24.2399L34.5498 10.6554L21.8183 20.6531L27.893 24.2399C28.4803 24.5867 29.4414 24.5867 30.0287 24.2399L38.3683 19.3158C38.9557 18.969 39.4362 18.1168 39.4362 17.4221V7.57795C39.4362 6.88321 38.9557 6.03104 38.3683 5.68425Z" fill="white"/>
</g>
<defs>
<clipPath id="clip0_652_4151">
<rect width="284" height="24" fill="white" transform="translate(0 0.5)"/>
</clipPath>
</defs>
</svg>
